<svg xmlns="http://www.w3.org/2000/svg" viewBox="0 0 880 300" width="100%" height="300">
  <rect width="100%" height="300" fill="#F6E9F0"/>
  <rect x="0" y="0" width="6" height="300" fill="#A51E6D"/>
  <text x="32" y="44" font-family="'Nunito Sans',sans-serif" font-size="11" font-weight="900" letter-spacing="3" fill="#A51E6D">TOPIC 01 — Global / Google I/O 2026</text>
  <text x="32" y="76" font-family="'Noto Sans JP',sans-serif" font-size="18" font-weight="900" fill="#1A1A1A">Google I/O 2026 開幕　Gemini・Veo 4・Android XR を一挙発表</text>
  <line x1="32" y1="92" x2="848" y2="92" stroke="#DEDEDE" stroke-width="1"/>
  <!-- 4 announcement cards -->
  <rect x="32" y="108" width="190" height="100" rx="8" fill="#ffffff" stroke="#DEDEDE" stroke-width="1"/>
  <rect x="32" y="108" width="190" height="32" rx="8" fill="#A51E6D"/>
  <rect x="32" y="128" width="190" height="12" fill="#A51E6D"/>
  <text x="127" y="129" font-family="'Noto Sans JP',sans-serif" font-size="11" font-weight="700" fill="#fff" text-anchor="middle">Gemini 3.5 / 4.0</text>
  <text x="127" y="162" font-family="'Noto Sans JP',sans-serif" font-size="11" fill="#4D4D4D" text-anchor="middle">マルチモーダル強化</text>
  <text x="127" y="182" font-family="'Noto Sans JP',sans-serif" font-size="11" fill="#4D4D4D" text-anchor="middle">エージェント機能拡張</text>
  <text x="127" y="202" font-family="'Noto Sans JP',sans-serif" font-size="11" fill="#808080" text-anchor="middle">Workspace 深部統合</text>

  <rect x="238" y="108" width="190" height="100" rx="8" fill="#ffffff" stroke="#DEDEDE" stroke-width="1"/>
  <rect x="238" y="108" width="190" height="32" rx="8" fill="#8C52FF"/>
  <rect x="238" y="128" width="190" height="12" fill="#8C52FF"/>
  <text x="333" y="129" font-family="'Noto Sans JP',sans-serif" font-size="11" font-weight="700" fill="#fff" text-anchor="middle">Veo 4 / Omni</text>
  <text x="333" y="162" font-family="'Noto Sans JP',sans-serif" font-size="11" fill="#4D4D4D" text-anchor="middle">次世代動画生成モデル</text>
  <text x="333" y="182" font-family="'Noto Sans JP',sans-serif" font-size="11" fill="#4D4D4D" text-anchor="middle">物理動作の安定性向上</text>
  <text x="333" y="202" font-family="'Noto Sans JP',sans-serif" font-size="11" fill="#808080" text-anchor="middle">内部名「Veo4 Omni」</text>

  <rect x="444" y="108" width="190" height="100" rx="8" fill="#ffffff" stroke="#DEDEDE" stroke-width="1"/>
  <rect x="444" y="108" width="190" height="32" rx="8" fill="#1A73E8"/>
  <rect x="444" y="128" width="190" height="12" fill="#1A73E8"/>
  <text x="539" y="129" font-family="'Noto Sans JP',sans-serif" font-size="11" font-weight="700" fill="#fff" text-anchor="middle">Android XR</text>
  <text x="539" y="162" font-family="'Noto Sans JP',sans-serif" font-size="11" fill="#4D4D4D" text-anchor="middle">スマートグラス最新デモ</text>
  <text x="539" y="182" font-family="'Noto Sans JP',sans-serif" font-size="11" fill="#4D4D4D" text-anchor="middle">ヘッドセット体験展示</text>
  <text x="539" y="202" font-family="'Noto Sans JP',sans-serif" font-size="11" fill="#808080" text-anchor="middle">開発者向けAPI公開</text>

  <rect x="650" y="108" width="190" height="100" rx="8" fill="#ffffff" stroke="#DEDEDE" stroke-width="1"/>
  <rect x="650" y="108" width="190" height="32" rx="8" fill="#34A853"/>
  <rect x="650" y="128" width="190" height="12" fill="#34A853"/>
  <text x="745" y="129" font-family="'Noto Sans JP',sans-serif" font-size="11" font-weight="700" fill="#fff" text-anchor="middle">AI × Workspace</text>
  <text x="745" y="162" font-family="'Noto Sans JP',sans-serif" font-size="11" fill="#4D4D4D" text-anchor="middle">Search / Chrome 統合</text>
  <text x="745" y="182" font-family="'Noto Sans JP',sans-serif" font-size="11" fill="#4D4D4D" text-anchor="middle">Firebase AI ツール</text>
  <text x="745" y="202" font-family="'Noto Sans JP',sans-serif" font-size="11" fill="#808080" text-anchor="middle">Cloud インフラ強化</text>

  <text x="32" y="240" font-family="'Noto Sans JP',sans-serif" font-size="11" fill="#808080">開催期間：2026年5月20日〜　｜　基調講演・Platforms State of the Union・100以上のセッションを公開</text>
  <text x="32" y="260" font-family="'Noto Sans JP',sans-serif" font-size="11" font-weight="700" fill="#A51E6D">OpenAI vs Google　競争が最激化　― Workspace企業にとって「すぐ使えるAI」が現実になる週</text>
</svg>
